# xmcd CD database file
#
# Track frame offsets:
#	150
#	14099
#	27826
#	42902
#	56256
#	69759
#	84621
#	98444
#	112206
#	126158
#	140414
#	153091
#	166672
#	181452
#	195682
#	209336
#	223475
#	236827
#	249770
#
# Disc length: 3861 seconds
#
# Revision: 0
# Processed by: cddbd v1.5.1PL2 Copyright (c) Steve Scherf et al.
# Submitted via: CDex 1.51
#
DISCID=050f1313
DTITLE=Café Espresso - Swinging Coffee
DYEAR=1900
DGENRE=Jazz
TTITLE0=Crazy Rhythm
TTITLE1=How 'Ya Feelin'
TTITLE2=Primitive
TTITLE3=Boogie Woogie (I May Be Wrong)
TTITLE4=Flying Home
TTITLE5=Roll 'em
TTITLE6=Woe! Is Me
TTITLE7=Jungle Nights In Harlem
TTITLE8=Organ Grinder's Swing
TTITLE9=Margie
TTITLE10=Get Rythm In Your Feet
TTITLE11=Just A Simple Melody
TTITLE12=A Study In Green
TTITLE13=I'll Allways Be In Love With You
TTITLE14=It's A Sin To Tell A Lie
TTITLE15=I Got Rhythm
TTITLE16=Swing Me With Rhythm
TTITLE17=I'se A Muggin'
TTITLE18=Sing, Sing, Sing (Part 1/ Part 2)
EXTD=
EXTT0=
EXTT1=
EXTT2=
EXTT3=
EXTT4=
EXTT5=
EXTT6=
EXTT7=
EXTT8=
EXTT9=
EXTT10=
EXTT11=
EXTT12=
EXTT13=
EXTT14=
EXTT15=
EXTT16=
EXTT17=
EXTT18=
PLAYORDER=
